<svg width="25" height="25" viewBox="0 0 25 25" fill="none" xmlns="http://www.w3.org/2000/svg">
<path d="M20.5347 6.05225L17.5347 6.05704L17.5315 4.05705C17.5297 2.94705 16.6383 2.05847 15.5283 2.06024L9.52831 2.06982C8.41831 2.07159 7.52973 2.96301 7.53151 4.07301L7.5347 6.07301L4.5347 6.0778C3.4247 6.07957 2.53613 6.97099 2.5379 8.08099L2.55546 19.081C2.55723 20.191 3.44865 21.0795 4.55865 21.0778L20.5586 21.0522C21.6686 21.0505 22.5572 20.159 22.5554 19.049L22.5379 8.04906C22.5361 6.93906 21.6447 6.05048 20.5347 6.05225ZM9.5315 4.06982L15.5315 4.06024L15.5347 6.06024L9.5347 6.06981L9.5315 4.06982ZM20.5554 19.0522L4.55546 19.0778L4.55226 17.0778L20.5522 17.0522L20.5554 19.0522ZM20.5475 14.0522L4.54747 14.0778L4.5379 8.07779L7.53789 8.073L7.54109 10.073L9.54108 10.0698L9.53789 8.06981L15.5379 8.06023L15.5411 10.0602L17.5411 10.057L17.5379 8.05704L20.5379 8.05225L20.5475 14.0522Z" fill="white"/>
</svg>
