<svg width="25" height="25" viewBox="0 0 25 25" fill="none" xmlns="http://www.w3.org/2000/svg">
<path d="M12.5425 11.0672C11.9325 11.0682 11.4433 11.5589 11.4443 12.1689C11.4452 12.7789 11.936 13.2682 12.546 13.2672C13.156 13.2662 13.6452 12.7754 13.6443 12.1654C13.6433 11.5554 13.1525 11.0662 12.5425 11.0672ZM12.5283 2.1672C7.00831 2.17601 2.53547 6.66316 2.54428 12.1832C2.5531 17.7031 7.04024 22.176 12.5602 22.1672C18.0802 22.1584 22.5531 17.6712 22.5443 12.1512C22.5354 6.63123 18.0483 2.15839 12.5283 2.1672ZM14.7378 14.3537L6.55386 18.1768L10.3508 9.98069L18.5347 6.15762L14.7378 14.3537Z" fill="#219653"/>
</svg>
