<svg width="318" height="227" viewBox="0 0 318 227" fill="none" xmlns="http://www.w3.org/2000/svg">
<path opacity="0.2" d="M312 122.5C312 185.184 221.184 227 158.5 227C95.8157 227 6 185.184 6 122.5C6 59.8157 95.8157 0 158.5 0C221.184 0 312 59.8157 312 122.5Z" fill="#2D9CDB"/>
<path opacity="0.3" d="M318 56.5C318 107.586 201.586 205 150.5 205C99.4137 205 0 107.586 0 56.5C0 5.41368 99.4137 20 150.5 20C201.586 20 318 5.41368 318 56.5Z" fill="#2D9CDB"/>
<circle opacity="0.7" cx="158.5" cy="104.5" r="74.5" fill="#2D9CDB"/>
<path d="M159.5 117.381C156.681 117.381 154.375 115.11 154.375 112.333C154.375 109.557 156.681 107.286 159.5 107.286C162.319 107.286 164.625 109.557 164.625 112.333C164.625 115.11 162.319 117.381 159.5 117.381ZM144.125 94.6667H146.688V89.619C146.688 82.6533 152.427 77 159.5 77C166.573 77 172.312 82.6533 172.312 89.619H167.444C167.444 85.3033 163.882 81.7952 159.5 81.7952C155.118 81.7952 151.556 85.3033 151.556 89.619V94.6667H174.875C177.694 94.6667 180 96.9381 180 99.7143V124.952C180 127.729 177.694 130 174.875 130H144.125C141.306 130 139 127.729 139 124.952V99.7143C139 96.9381 141.306 94.6667 144.125 94.6667ZM144.125 124.952H174.875V99.7143H144.125V124.952Z" fill="white"/>
</svg>
