<svg width="75" height="75" viewBox="0 0 75 75" fill="none" xmlns="http://www.w3.org/2000/svg">
<rect width="75" height="75" rx="16" fill="#2D9CDB"/>
<path d="M30.9407 36.627C32.4788 36.627 33.7256 37.8738 33.7256 39.4115C33.7256 40.9492 32.4788 42.1964 30.9407 42.1964C29.4028 42.1964 28.156 40.9492 28.156 39.4115C28.156 37.8738 29.4028 36.627 30.9407 36.627Z" fill="white"/>
<path d="M58.0597 38.8634L59.948 23.9764L46.4032 18.8362L30.1559 26.5967L16 20.6183L17.9115 36.5004L16.0795 52.1398L31.1202 54.9611L46.4612 52.0394L60 55.1637L58.0597 38.8634ZM46.353 20.4131L58.3506 24.9343L57.5247 31.444L45.5665 28.4191L46.353 20.4131ZM44.7659 21.2395L44.133 28.0553L44.1226 28.0529L35.843 29.1208L35.7934 29.3034C35.783 29.3429 34.8224 32.8919 33.8101 34.506C33.1549 34.1206 32.4181 33.8626 31.6308 33.767L30.9596 27.8324L44.7659 21.2395ZM43.5001 36.4424L36.3042 37.5274C35.9166 36.4311 35.2056 35.4895 34.2823 34.8159C35.2243 33.3122 36.0745 30.4011 36.2886 29.6327L44.0786 28.6272L43.5001 36.4424ZM29.496 27.9048L30.1609 33.7813C27.9737 34.0826 26.1797 35.627 25.5222 37.679L19.3861 36.7292L18.7969 31.0379C20.8307 30.9033 22.3563 30.2414 23.334 29.0604C24.2154 27.9974 24.4689 26.7398 24.5174 25.8024L29.496 27.9048ZM17.7715 22.9536L23.9577 25.566C23.94 26.4285 23.745 27.6801 22.8999 28.7C22.0183 29.763 20.6161 30.3576 18.7254 30.4769L17.7715 22.9536ZM17.6916 50.9554L19.2135 38.1821L25.2651 39.1197C25.2606 39.2167 25.2508 39.3128 25.2508 39.4119C25.2508 40.7423 25.7127 41.9648 26.4818 42.9354L23.3389 45.4592L22.3486 51.8281L17.6916 50.9554ZM29.5477 53.1788L22.9032 51.9325L23.863 45.7618L26.8539 43.3609C27.7715 44.3094 29.013 44.9424 30.4003 45.073L29.5477 53.1788ZM26.3803 39.4119C26.3803 36.8962 28.4263 34.8504 30.9406 34.8504C33.4562 34.8504 35.5022 36.8963 35.5022 39.4119C35.5022 41.9263 33.4562 43.9722 30.9406 43.9722C28.4262 43.9727 26.3803 41.9263 26.3803 39.4119ZM31.1183 53.4732L30.9901 53.449L31.8778 45.0176C34.5698 44.5683 36.6311 42.2289 36.6311 39.4106C36.6311 39.2582 36.6201 39.1093 36.6082 38.9595L43.6421 37.8989L44.2292 43.8981C41.1434 44.0431 38.8368 44.9917 37.3849 46.744C35.692 48.7891 35.6121 51.3389 35.6998 52.5996L31.1183 53.4732ZM36.2632 52.4931C36.195 51.2966 36.2939 48.9485 37.8206 47.1052C39.171 45.4748 41.3495 44.5951 44.2837 44.4619L44.9088 50.8451L36.2632 52.4931ZM45.514 28.9868L57.4544 32.0062L56.7384 37.647L44.9486 36.2238L45.514 28.9868ZM55.1146 42.5198L49.682 41.8739L50.6769 51.5109L46.3244 50.5754L45.0901 37.6825L45.217 37.6626L56.6141 39.1094L58.3002 53.2708L51.2473 51.6439L50.3161 42.5182L55.1581 43.0801L55.1146 42.5198Z" fill="white"/>
</svg>
