<svg width="29" height="29" viewBox="0 0 29 29" fill="none" xmlns="http://www.w3.org/2000/svg">
<g clip-path="url(#clip0_105_56)">
<path d="M14.8139 7.20768C14.8129 6.56602 14.287 6.04186 13.6454 6.04288L7.60204 6.05253L8.36611 2.3413L8.38902 2.07293C8.38844 1.71127 8.23625 1.38484 8.00253 1.14022L7.07939 0.220021L1.32527 5.99255C1.01077 6.30805 0.813146 6.7517 0.813909 7.23003L0.826015 14.8134C0.827561 15.7817 1.61047 16.5621 2.57881 16.5606L10.4538 16.548C11.1771 16.5468 11.7948 16.1025 12.0621 15.4838L14.6889 9.30789C14.7703 9.10942 14.8166 8.88768 14.8162 8.66601L14.8139 7.20768ZM27.0713 11.8548L19.1963 11.8674C18.473 11.8685 17.8554 12.3128 17.588 12.9316L14.9612 19.1075C14.8799 19.3059 14.8336 19.5277 14.8339 19.7493L14.8362 21.2077C14.8373 21.8493 15.3631 22.3735 16.0048 22.3725L22.0481 22.3628L21.284 26.074L21.2611 26.3541C21.2617 26.7157 21.4139 27.0422 21.6476 27.2868L22.5707 28.1953L28.3249 22.4228C28.6394 22.1073 28.837 21.6636 28.8362 21.1853L28.8241 13.602C28.8226 12.6337 28.0397 11.8532 27.0713 11.8548Z" fill="#F2994A"/>
</g>
<defs>
<clipPath id="clip0_105_56">
<rect width="28" height="28" fill="white" transform="translate(0.802734 0.230042) rotate(-0.0914669)"/>
</clipPath>
</defs>
</svg>
