<svg width="25" height="25" viewBox="0 0 25 25" fill="none" xmlns="http://www.w3.org/2000/svg">
<path d="M19.5303 3.84952L5.52027 3.87188C4.41027 3.87366 3.54169 4.76504 3.54347 5.87504L3.55582 19.875C3.55757 20.975 4.43901 21.8736 5.54901 21.8719L19.559 21.8495C20.659 21.8477 21.5575 20.9463 21.5558 19.8463L21.5334 5.84632C21.5317 4.73632 20.6303 3.84776 19.5303 3.84952ZM19.5494 15.8495L15.5494 15.8559C15.5521 17.5159 14.2042 18.858 12.5542 18.8607C10.9042 18.8633 9.55207 17.5255 9.54942 15.8655L5.53943 15.8719L5.52346 5.87188L19.5334 5.84952L19.5494 15.8495Z" fill="white"/>
</svg>
