<svg width="25" height="20" viewBox="0 0 25 20" fill="none" xmlns="http://www.w3.org/2000/svg">
<path d="M24.2509 2.3733C23.3938 2.75335 22.4719 3.0104 21.505 3.12519C22.4922 2.53373 23.2498 1.59788 23.6074 0.480916C22.6836 1.02888 21.6601 1.4264 20.5716 1.64066C19.6996 0.711939 18.4571 0.131531 17.0813 0.131531C14.4417 0.131531 12.3008 2.27241 12.3008 4.91205C12.3008 5.28675 12.3432 5.65147 12.4252 6.00156C8.45222 5.80227 4.92949 3.89919 2.5715 1.00606C2.16008 1.71197 1.92406 2.53373 1.92406 3.40969C1.92406 5.06785 2.76865 6.5317 4.05068 7.38877C3.26742 7.36417 2.52978 7.14919 1.88556 6.79018C1.8852 6.8105 1.8852 6.83082 1.8852 6.85078C1.8852 9.16707 3.53373 11.099 5.72024 11.5379C5.31952 11.6477 4.89634 11.7058 4.46103 11.7058C4.15229 11.7058 3.85317 11.6762 3.56154 11.6206C4.16976 13.5194 5.93487 14.9016 8.02726 14.9405C6.39085 16.2229 4.32983 16.9869 2.08949 16.9869C1.70445 16.9869 1.32298 16.9644 0.949707 16.9199C3.0642 18.2768 5.57764 19.0679 8.27717 19.0679C17.0703 19.0679 21.879 11.7835 21.879 5.46572C21.879 5.25859 21.8743 5.05216 21.8651 4.84752C22.7998 4.17371 23.6102 3.33197 24.2509 2.3733Z" fill="#F1F2F2"/>
</svg>
